<mxfile host="app.diagrams.net" modified="2023-12-15T22:27:39.172Z" agent="Mozilla/5.0 (Windows NT 10.0; Win64; x64) AppleWebKit/537.36 (KHTML, like Gecko) Chrome/119.0.0.0 Safari/537.36 Edg/119.0.0.0" version="22.1.11" etag="bC_Y2E8UcN4KIGRm-BvG" type="github">
  <diagram name="Страница — 1" id="1sKJ1t6aCaFmmQpSGhhS">
    <mxGraphModel>
      <root>
        <mxCell id="0" />
        <mxCell id="1" parent="0" />
      </root>
    </mxGraphModel>
  </diagram>
</mxfile>
